# xmcd
#
# Track frame offsets: 
#        150
#        27255
#        47691
#        65652
#        82597
#        103543
#        116684
#        133819
#        149905
#        179945
#        205208
#        222866
#        241407
#        267874
#        282001
#
# Disc length: 4085 seconds
#
# Revision: 0
# Processed by: cddbd v1.5.2PL0 Copyright (c) Steve Scherf et al.
# Submitted via: ExactAudioCopy v1.0b4
#
DISCID=e80ff30f
DTITLE=Cool John Ferguson - With These Hands
DYEAR=2007
DGENRE=Blues
TTITLE0=Who Did That
TTITLE1=Come On Back To Me
TTITLE2=Black Mud Boogie
TTITLE3=Russian Funk
TTITLE4=Passing Time
TTITLE5=Durham Blues
TTITLE6=I Think About You Daily
TTITLE7=Let Me Be Your Man
TTITLE8=Big Storm
TTITLE9=Golden Girl
TTITLE10=Gris Gris Isle
TTITLE11=Experanza
TTITLE12=Mister Brown
TTITLE13=Kickin' It
TTITLE14=It's You That I Love
EXTD=
EXTT0=
EXTT1=
EXTT2=
EXTT3=
EXTT4=
EXTT5=
EXTT6=
EXTT7=
EXTT8=
EXTT9=
EXTT10=
EXTT11=
EXTT12=
EXTT13=
EXTT14=
PLAYORDER=
